<svg width="64.901" height="72.102" viewBox="0 0 64.901 72.102" xmlns="http://www.w3.org/2000/svg">
  <g id="svgGroup" stroke-linecap="round" fill-rule="evenodd" font-size="9pt" stroke="#000" stroke-width="0.25mm" fill="#000" style="stroke:#000;stroke-width:0.25mm;fill:#000">
    <path d="M 42.501 62.2 L 42.501 42.8 L 36.101 42.8 L 36.101 40.6 L 64.901 40.6 L 64.901 42.8 L 61.001 42.8 L 61.001 71 L 59.501 71 A 5.763 5.763 0 0 0 55.3 68.55 A 7.944 7.944 0 0 0 54.401 68.5 A 5.583 5.583 0 0 0 53.681 68.564 Q 52.05 68.789 47.942 69.818 A 244.843 244.843 0 0 0 46.051 70.3 A 69.541 69.541 0 0 1 41.321 71.362 Q 37.34 72.1 34.201 72.1 A 48.439 48.439 0 0 1 24.079 71.107 Q 14.895 69.144 8.951 63.3 Q 1.447 55.922 0.235 42.321 A 61.669 61.669 0 0 1 0.001 36.85 A 53.536 53.536 0 0 1 1.008 26.134 Q 3.069 16.05 9.351 9.6 A 31.088 31.088 0 0 1 26.563 0.678 A 44.543 44.543 0 0 1 34.501 0 Q 40.601 0 46.751 1.55 Q 52.285 2.945 53.649 3.085 A 2.558 2.558 0 0 0 53.901 3.1 Q 54.901 3.1 55.401 2.65 Q 55.901 2.2 56.501 1.1 L 57.601 1.1 L 58.401 22.8 L 56.601 22.8 A 102.22 102.22 0 0 0 53.073 16.365 Q 49.922 11.106 46.751 7.55 A 19.463 19.463 0 0 0 43.212 4.391 A 13.095 13.095 0 0 0 35.701 2 Q 22.078 2 20.585 25.706 A 98.761 98.761 0 0 0 20.401 31.9 L 20.401 39.8 A 96.983 96.983 0 0 0 20.698 47.657 Q 21.343 55.567 23.391 60.727 A 24.166 24.166 0 0 0 24.151 62.45 A 17.795 17.795 0 0 0 26.518 66.148 A 10.546 10.546 0 0 0 34.901 70.1 Q 38.366 70.1 40.056 69.2 A 3.246 3.246 0 0 0 41.151 68.3 Q 42.501 66.5 42.501 62.2 Z" vector-effect="non-scaling-stroke"/>
  </g>
</svg>